<?xml version="1.0" encoding="utf-8"?>
<!-- Generator: Adobe Illustrator 26.4.1, SVG Export Plug-In . SVG Version: 6.00 Build 0)  -->
<svg version="1.1" id="Capa_1" xmlns="http://www.w3.org/2000/svg" xmlns:xlink="http://www.w3.org/1999/xlink" x="0px" y="0px"
	 viewBox="709.9 0 405.6 574.7" style="enable-background:new 709.9 0 405.6 574.7;" xml:space="preserve">
<style type="text/css">
	.st0{fill:none;}
	.st1{fill-rule:evenodd;clip-rule:evenodd;}
	.st2{fill:none;stroke:#000000;stroke-width:0.1385;stroke-miterlimit:22.9256;}
	.st3{fill-rule:evenodd;clip-rule:evenodd;fill:#FFFFFF;}
	.st4{fill:none;stroke:#000000;stroke-width:9.010000e-02;stroke-miterlimit:22.9256;}
	.st5{fill-rule:evenodd;clip-rule:evenodd;fill:#0765A7;}
	
		.st6{clip-path:url(#SVGID_00000047772803968275350180000001479140007350273437_);fill:url(#SVGID_00000062157477121686796250000006027364616509124013_);}
	.st7{clip-path:url(#SVGID_00000008139474280435437620000006836935703307629456_);}
	
		.st8{clip-path:url(#SVGID_00000173869825487372759570000016297947644772090781_);fill:url(#SVGID_00000085945646396676813320000009293320413122058402_);}
	.st9{fill-rule:evenodd;clip-rule:evenodd;fill:#F8B219;}
</style>
<g>
	<g>
		<g>
			<g>
				<g>
					<path d="M204.1,250.8H241v36.6c-11.3,3.6-24.6,7.2-39.5,7.2c-44.5,0-75.6-29.9-75.6-72.7c0-41.1,31.6-73.3,71.9-73.3
						c22.7,0,45.6,6.4,68,19.1l3.4,1.9v-34l-1.4-0.6c-30.1-13-46.3-17-69.4-17c-60.1,0-105.5,45-105.5,104.7
						c0,59.4,44,102.5,104.6,102.5c26.8,0,48.3-4.8,74.2-16.5l1.3-0.6v-87.4H204L204.1,250.8L204.1,250.8z"/>
					<rect x="34.1" y="120.7" width="32.1" height="201.9"/>
					<path d="M366.6,119.5l-84.5,203h33l24.2-58.2h78.8l25.7,58.2H477l-87.9-203L366.6,119.5L366.6,119.5z M405,234.4h-53l25.5-63.4
						L405,234.4z"/>
					<path d="M643.7,272.7c-21.2,14.1-44.6,21.9-65.8,21.9c-45.2,0-75.6-29.2-75.6-72.7c0-42.5,31.3-73.3,74.5-73.3
						c21.7,0,41.7,6.2,65.1,20.2l3.4,2v-35.8l-1.4-0.6c-26.7-11.5-46.7-16.4-66.9-16.4c-62.4,0-107.7,44.8-107.7,106.4
						c0,39,28.8,100.7,106,100.7c33.2,0,54.4-9,70.7-17.7l1.2-0.6v-36.5L643.7,272.7z"/>
				</g>
				<g>
					<path d="M588.1,418.5h5.7v39.8h-5.7V418.5z M548.1,418.4h34.2l-25.4,34.7h25.4v5.1h-35.9l25.5-34.7h-23.8L548.1,418.4
						L548.1,418.4z M510.1,418.4h34.2L519,453.1h25.4v5.1h-35.8l25.5-34.7h-23.8L510.1,418.4L510.1,418.4z M494,441.3l-6.4-14.4
						l-5.9,14.4H494z M485.7,418.3h4l17.8,39.9h-5.8l-5.3-11.8h-16.9l-5,11.8h-5.8L485.7,418.3z M445,423.5H438v29.5h7.2
						c2.9,0,5.1-0.2,6.7-0.6c1.6-0.3,2.9-0.9,3.9-1.4c1.1-0.6,2-1.4,2.9-2.2c2.8-2.8,4.2-6.4,4.2-10.8c0-4.3-1.5-7.7-4.3-10.4
						c-1-1-2.3-1.8-3.6-2.5c-1.4-0.7-2.7-1.1-3.9-1.3C449.8,423.6,447.8,423.5,445,423.5z M432.3,458.1v-39.6h13.4
						c5.4,0,9.7,0.8,12.8,2.4c3.2,1.6,5.6,4,7.5,7.2c1.9,3.1,2.8,6.5,2.8,10.2c0,2.7-0.5,5.2-1.5,7.6c-1,2.5-2.5,4.5-4.4,6.4
						c-1.9,1.9-4.2,3.3-6.7,4.3c-1.5,0.6-2.9,1-4.1,1.2c-1.3,0.2-3.7,0.2-7.2,0.2L432.3,458.1L432.3,458.1z M403.7,423.3
						c-4.6,0-8.3,1.4-11.2,4.3c-2.9,2.8-4.4,6.4-4.4,10.9c0,4.3,1.5,7.9,4.4,10.7c2.9,2.8,6.6,4.3,11,4.3c4.4,0,8.1-1.4,11.1-4.4
						c3-2.9,4.4-6.5,4.4-10.8c0-4.2-1.5-7.7-4.4-10.6C411.7,424.7,408,423.3,403.7,423.3z M403.5,417.9c6.2,0,11.3,1.9,15.3,5.8
						c4.1,3.9,6.1,8.7,6.1,14.6c0,5.9-2.1,10.7-6.2,14.6c-4.1,3.8-9.3,5.8-15.6,5.8c-6,0-11-1.9-15-5.8c-4-3.8-6-8.7-6-14.4
						c0-5.9,2-10.8,6-14.7C392.2,419.8,397.3,417.9,403.5,417.9z M376.6,449v6.2c-4.2,2.3-9,3.4-14.5,3.4c-4.4,0-8.1-0.9-11.3-2.7
						c-3.1-1.8-5.5-4.2-7.3-7.4c-1.8-3.1-2.7-6.5-2.7-10.1c0-5.8,2.1-10.6,6.2-14.6c4.1-3.9,9.2-5.9,15.2-5.9
						c4.2,0,8.8,1.1,13.9,3.2v6.2c-4.6-2.7-9.2-4-13.6-4c-4.5,0-8.3,1.4-11.3,4.3c-3,2.9-4.5,6.5-4.5,10.8c0,4.3,1.5,8,4.5,10.7
						c3,2.8,6.7,4.2,11.3,4.2C367.3,453.4,372,451.9,376.6,449z M312,418.5h5.4v39.8h-4.9l-26.6-30.6v30.6h-5.3v-39.8h4.6l26.8,30.8
						L312,418.5L312,418.5z M276.3,407l-6.4,8.5h-3.2l3.8-8.5H276.3z M265.6,418.5h5.7v39.8h-5.7V418.5z M226.6,418.4h33.2v5.1H246
						v34.7h-5.7v-34.7h-13.7V418.4z M212.8,441.5l-4.3-2.6c-2.7-1.7-4.6-3.3-5.8-4.9c-1.2-1.6-1.7-3.4-1.7-5.5
						c0-3.1,1.1-5.7,3.3-7.6c2.1-2,5-2.9,8.4-2.9c3.3,0,6.4,1,9.1,2.8v6.5c-2.9-2.8-6-4.2-9.2-4.2c-1.8,0-3.4,0.5-4.6,1.3
						c-1.2,0.8-1.8,2-1.8,3.3c0,1.2,0.4,2.3,1.3,3.4c0.9,1,2.3,2.2,4.2,3.3l4.3,2.5c4.8,2.9,7.3,6.5,7.3,11c0,3.1-1.1,5.8-3.2,7.8
						c-2.2,2-4.9,3-8.3,3c-3.9,0-7.5-1.2-10.7-3.6v-7.2c3.1,4,6.6,5.8,10.7,5.8c1.8,0,3.3-0.5,4.4-1.5c1.2-1,1.8-2.2,1.8-3.7
						C218.1,446,216.3,443.7,212.8,441.5z M189.1,418.5h5.7V441c0,3-0.2,5.3-0.6,6.9c-0.5,1.5-1,2.8-1.7,3.9c-0.6,1-1.4,1.9-2.4,2.7
						c-3.1,2.7-7.2,4.1-12.3,4.1c-5.2,0-9.3-1.3-12.5-4.1c-0.9-0.8-1.8-1.8-2.4-2.8c-0.7-1.1-1.2-2.4-1.6-3.8
						c-0.4-1.5-0.6-3.8-0.6-7v-22.5h5.7V441c0,3.7,0.4,6.3,1.3,7.8c0.8,1.5,2.1,2.6,3.9,3.5c1.8,0.9,3.8,1.3,6.2,1.3
						c3.3,0,6.1-0.9,8.2-2.7c1.1-0.9,1.9-2,2.4-3.3c0.5-1.3,0.7-3.5,0.7-6.6L189.1,418.5L189.1,418.5z M139.5,438.6h13.3v16.8
						c-4.9,2.1-9.7,3.2-14.5,3.2c-6.6,0-11.8-1.9-15.8-5.8c-3.9-3.8-5.9-8.6-5.9-14.2c0-5.9,2-10.8,6.1-14.8c4-3.9,9.2-5.9,15.3-5.9
						c2.2,0,4.4,0.2,6.3,0.7c2,0.5,4.6,1.4,7.7,2.7v5.8c-4.8-2.7-9.5-4.1-14.1-4.1c-4.3,0-8,1.5-11,4.5c-3,3-4.5,6.6-4.5,10.9
						c0,4.5,1.5,8.2,4.5,11c3,2.9,6.8,4.3,11.5,4.3c2.2,0,5-0.5,8.2-1.5l0.6-0.2v-8.3h-7.7L139.5,438.6L139.5,438.6z M102.2,441.3
						L95.8,427l-5.9,14.4H102.2z M93.9,418.3h4l17.8,39.9h-5.8l-5.3-11.8H87.6l-5,11.8h-5.9L93.9,418.3z M655,355.8
						c-4.5,0-8.3,1.5-11.2,4.3c-2.9,2.8-4.4,6.5-4.4,10.9c0,4.3,1.5,7.8,4.4,10.7c3,2.8,6.6,4.2,11.1,4.2c4.4,0,8.1-1.4,11.1-4.3
						c3-2.9,4.4-6.5,4.4-10.9c0-4.2-1.5-7.7-4.4-10.6C663,357.2,659.4,355.8,655,355.8z M654.8,350.4c6.1,0,11.3,1.9,15.3,5.8
						c4.1,3.9,6.2,8.8,6.2,14.6c0,5.9-2.1,10.7-6.2,14.6c-4.2,3.8-9.4,5.7-15.6,5.7c-6,0-11-1.9-15-5.7c-4-3.8-6-8.7-6-14.4
						c0-6,2-10.8,6-14.7C643.6,352.3,648.7,350.4,654.8,350.4z M628,381.5v6.2c-4.1,2.3-9,3.4-14.5,3.4c-4.4,0-8.2-0.9-11.3-2.7
						c-3.1-1.8-5.5-4.2-7.3-7.3c-1.8-3.1-2.7-6.5-2.7-10.2c0-5.8,2.1-10.7,6.2-14.6c4.1-3.9,9.2-5.9,15.3-5.9
						c4.2,0,8.8,1.1,13.9,3.3v6.2c-4.6-2.7-9.2-4-13.6-4c-4.5,0-8.3,1.4-11.3,4.3c-3,2.9-4.5,6.5-4.5,10.8c0,4.3,1.5,7.9,4.4,10.7
						c3,2.8,6.7,4.2,11.4,4.2C618.7,385.9,623.4,384.4,628,381.5z M578.9,351h5.7v39.7h-5.7V351z M551.3,351h21.2v5h-15.5v11h15.5v5
						h-15.5v18.5h-5.7L551.3,351L551.3,351z M533.4,339.5l-6.4,8.5h-3.2l3.8-8.5H533.4z M533,373.9l-6.4-14.4l-6,14.4H533z
						 M524.7,350.8h4l17.8,39.9h-5.8l-5.3-11.8h-16.9l-5,11.8h-5.8L524.7,350.8z M484.1,355.8h-1.7v12.6h2.1c2.8,0,4.9-0.2,5.9-0.8
						c1.1-0.5,1.9-1.2,2.5-2.2c0.6-1,0.9-2.1,0.9-3.4c0-1.2-0.3-2.4-1-3.4c-0.7-1-1.6-1.7-2.8-2.1
						C488.8,356,486.9,355.8,484.1,355.8z M476.7,390.7V351h10c4,0,7.2,1,9.5,3c2.3,2,3.6,4.7,3.6,8.1c0,2.3-0.6,4.3-1.8,6
						c-1.2,1.7-2.8,2.9-5,3.8c1.3,0.9,2.5,2,3.7,3.4c1.2,1.4,2.9,3.9,5.1,7.5c1.4,2.3,2.5,4,3.3,5.1l2.1,2.8h-6.8l-1.8-2.6
						c0-0.1-0.2-0.2-0.3-0.5l-1.1-1.5l-1.8-3l-1.9-3.1c-1.2-1.6-2.3-2.9-3.2-3.9c-1-1-1.8-1.7-2.6-2.1c-0.8-0.5-2.1-0.7-4-0.7h-1.5
						v17.3L476.7,390.7L476.7,390.7z M454.6,371.1h13.3V388c-4.9,2.1-9.8,3.2-14.5,3.2c-6.6,0-11.9-1.9-15.8-5.7
						c-3.9-3.8-5.9-8.6-5.9-14.2c0-5.9,2-10.9,6.1-14.8c4-3.9,9.2-5.9,15.3-5.9c2.2,0,4.4,0.2,6.4,0.8c2,0.5,4.5,1.4,7.6,2.6v5.8
						c-4.8-2.7-9.5-4.1-14.1-4.1c-4.3,0-7.9,1.5-10.9,4.4c-3,3-4.5,6.6-4.5,10.9c0,4.5,1.5,8.2,4.5,11.1c3,2.9,6.8,4.3,11.5,4.3
						c2.3,0,5-0.5,8.2-1.6l0.5-0.2v-8.3h-7.6L454.6,371.1L454.6,371.1z M404.5,355.8c-4.5,0-8.3,1.5-11.2,4.3
						c-2.9,2.8-4.4,6.5-4.4,10.9c0,4.3,1.5,7.8,4.4,10.7c3,2.8,6.7,4.2,11.1,4.2c4.4,0,8.1-1.4,11.1-4.3c3-2.9,4.5-6.5,4.5-10.9
						c0-4.2-1.5-7.7-4.5-10.6C412.5,357.2,408.9,355.8,404.5,355.8z M404.3,350.4c6.1,0,11.2,1.9,15.3,5.8s6.2,8.8,6.2,14.6
						c0,5.9-2.1,10.7-6.2,14.6c-4.1,3.8-9.3,5.7-15.6,5.7c-6,0-11-1.9-15-5.7c-4-3.8-6-8.7-6-14.4c0-6,2-10.8,6-14.7
						C393.1,352.3,398.2,350.4,404.3,350.4z M355.4,351h22.5v5h-16.8v12.1h16.2v5.1h-16.2v12.3h17.3v5.1h-23L355.4,351L355.4,351z
						 M333.4,371.1h13.3V388c-4.9,2.1-9.7,3.2-14.6,3.2c-6.5,0-11.8-1.9-15.7-5.7c-4-3.8-5.9-8.6-5.9-14.2c0-5.9,2-10.9,6.1-14.8
						c4-3.9,9.2-5.9,15.3-5.9c2.2,0,4.3,0.2,6.4,0.8c2,0.5,4.5,1.4,7.6,2.6v5.8c-4.8-2.7-9.5-4.1-14.1-4.1c-4.3,0-8,1.5-11,4.4
						c-3,3-4.4,6.6-4.4,10.9c0,4.5,1.5,8.2,4.4,11.1c3,2.9,6.8,4.3,11.5,4.3c2.3,0,5-0.5,8.2-1.6l0.5-0.2v-8.3h-7.7L333.4,371.1
						L333.4,371.1z M267.2,355.8c-4.6,0-8.3,1.5-11.2,4.3c-2.9,2.8-4.4,6.5-4.4,10.9c0,4.3,1.5,7.8,4.4,10.7c3,2.8,6.6,4.2,11,4.2
						c4.4,0,8.2-1.4,11.1-4.3c3-2.9,4.4-6.5,4.4-10.9c0-4.2-1.5-7.7-4.4-10.6C275.2,357.2,271.5,355.8,267.2,355.8z M267,350.4
						c6.1,0,11.2,1.9,15.3,5.8c4,3.9,6.1,8.8,6.1,14.6c0,5.9-2.1,10.7-6.2,14.6c-4.1,3.8-9.3,5.7-15.6,5.7c-6,0-11-1.9-15-5.7
						c-4-3.8-6-8.7-6-14.4c0-6,2-10.8,6-14.7C255.8,352.3,260.9,350.4,267,350.4z M212.4,350.9h33.2v5.1h-13.9v34.7H226V356h-13.6
						L212.4,350.9L212.4,350.9z M201.9,351h5.7v22.5c0,3-0.2,5.3-0.7,6.9c-0.4,1.5-1,2.8-1.7,3.9c-0.6,1-1.4,2-2.4,2.8
						c-3.1,2.7-7.3,4-12.3,4c-5.2,0-9.4-1.3-12.5-4c-1-0.8-1.8-1.8-2.4-2.8c-0.7-1-1.2-2.3-1.6-3.8c-0.4-1.5-0.6-3.9-0.6-7V351h5.8
						v22.5c0,3.7,0.4,6.3,1.3,7.8c0.8,1.4,2.1,2.6,3.9,3.5c1.8,0.9,3.8,1.3,6.2,1.3c3.4,0,6.1-0.8,8.2-2.6c1.1-1,1.9-2.1,2.4-3.4
						c0.5-1.3,0.7-3.5,0.7-6.6L201.9,351L201.9,351z M135.4,350.9h33.1v5.1h-13.9v34.7H149V356h-13.6L135.4,350.9L135.4,350.9z
						 M123.9,351h5.7v39.7h-5.7V351z M85,350.9h33.2v5.1h-13.9v34.7h-5.7V356H85V350.9z M71.2,374l-4.3-2.6
						c-2.7-1.6-4.6-3.3-5.8-4.9c-1.1-1.7-1.7-3.5-1.7-5.6c0-3.1,1.1-5.6,3.3-7.6c2.1-1.9,5-3,8.4-3c3.3,0,6.4,1,9.2,2.8v6.4
						c-2.9-2.8-6-4.1-9.3-4.1c-1.9,0-3.4,0.4-4.6,1.3c-1.2,0.8-1.8,2-1.8,3.2c0,1.2,0.4,2.3,1.3,3.4c0.9,1,2.3,2.1,4.2,3.3l4.3,2.5
						c4.9,2.9,7.3,6.6,7.3,11c0,3.2-1,5.8-3.2,7.8c-2.1,2-4.9,3-8.3,3c-3.9,0-7.5-1.2-10.7-3.6v-7.2c3.1,3.9,6.6,5.8,10.6,5.8
						c1.8,0,3.3-0.5,4.5-1.5c1.2-1,1.8-2.2,1.8-3.7C76.4,378.5,74.6,376.2,71.2,374z M47.1,351h5.4v39.7h-4.9L21,360.1v30.5h-5.4
						V351h4.6L47,381.8L47.1,351L47.1,351z M0.7,351h5.7v39.7H0.7V351z"/>
					<path d="M403.1,459.3c-6.1,0-11.3-2-15.4-5.9c-4.1-4-6.2-9-6.2-14.9c0-6.1,2-11.2,6.2-15.2c4.1-4,9.4-6,15.7-6
						c6.3,0,11.6,2,15.8,6c4.2,4,6.3,9.1,6.3,15.1c0,6-2.2,11-6.4,15.1C415,457.3,409.6,459.3,403.1,459.3z M403.5,418.6
						c-6,0-10.8,1.8-14.8,5.6c-3.8,3.7-5.8,8.5-5.8,14.2c0,5.6,1.9,10.2,5.8,14c3.8,3.7,8.7,5.6,14.5,5.6c6.1,0,11.2-1.9,15.2-5.6
						c4-3.7,6-8.5,6-14.1c0-5.6-2-10.3-6-14.1C414.4,420.5,409.4,418.6,403.5,418.6z M362.2,459.3c-4.5,0-8.4-0.9-11.6-2.8
						c-3.2-1.8-5.7-4.4-7.6-7.6c-1.8-3.2-2.8-6.7-2.8-10.4c0-5.9,2.1-11,6.3-15.1c4.2-4.1,9.5-6.1,15.7-6.1c4.2,0,9,1.1,14.2,3.3
						l0.4,0.2v7.7l-1-0.5c-4.5-2.6-9-3.9-13.3-3.9c-4.3,0-8,1.4-10.8,4.2c-2.9,2.7-4.3,6.1-4.3,10.3c0,4.1,1.4,7.6,4.2,10.2
						c2.8,2.7,6.5,4,10.9,4c4.6,0,9.3-1.4,13.7-4.3l1-0.6v7.8l-0.3,0.2C372.7,458.1,367.7,459.3,362.2,459.3z M362.3,418.6
						c-5.8,0-10.8,1.9-14.8,5.7c-4,3.9-5.9,8.5-5.9,14.1c0,3.5,0.8,6.8,2.6,9.8c1.8,3,4.1,5.4,7.1,7.1c3,1.7,6.7,2.6,10.9,2.6
						c5.2,0,9.8-1,13.8-3.2v-4.7c-4.4,2.6-8.9,3.9-13.5,3.9c-4.8,0-8.7-1.5-11.8-4.4c-3-2.9-4.6-6.7-4.6-11.2
						c0-4.5,1.6-8.2,4.7-11.3c3.1-3,7.1-4.5,11.8-4.5c4.2,0,8.6,1.2,13,3.5v-4.6C370.6,419.6,366.2,418.6,362.3,418.6z M211.9,459.3
						c-4,0-7.8-1.2-11.1-3.7l-0.2-0.2v-9.5l1.2,1.5c2.9,3.8,6.3,5.6,10.2,5.6c1.6,0,3-0.5,4-1.4c1.1-0.8,1.6-1.9,1.6-3.2
						c0-2.2-1.7-4.3-5-6.4l-4.3-2.6c-2.7-1.7-4.8-3.4-6-5.1c-1.2-1.7-1.8-3.7-1.8-5.9c0-3.3,1.2-6,3.5-8.1c2.3-2.1,5.3-3.1,8.9-3.1
						c3.4,0,6.6,1,9.5,2.9l0.3,0.2v8.4l-1.1-1.1c-2.7-2.7-5.7-4-8.8-4c-1.7,0-3.1,0.4-4.2,1.2c-1,0.8-1.5,1.7-1.5,2.8
						c0,1.1,0.4,2,1.2,3c0.8,1,2.2,2,4,3.1l4.4,2.6c5,3,7.6,6.9,7.6,11.6c0,3.3-1.2,6.1-3.4,8.2
						C218.4,458.2,215.5,459.3,211.9,459.3z M201.9,454.7c3,2.2,6.4,3.3,10,3.3c3.2,0,5.9-1,7.9-2.8c2-1.8,3-4.3,3-7.2
						c0-4.3-2.3-7.7-7-10.5l-4.3-2.6c-2-1.1-3.5-2.3-4.4-3.4c-1-1.2-1.5-2.4-1.5-3.8c0-1.6,0.7-2.8,2.1-3.9c1.3-0.9,3-1.4,5-1.4
						c3,0,5.9,1.2,8.6,3.3v-4.7c-2.6-1.6-5.5-2.5-8.5-2.5c-3.3,0-6,0.9-8,2.8c-2,1.8-3.1,4.2-3.1,7.1c0,2,0.5,3.7,1.6,5.1
						c1.1,1.5,3,3.1,5.6,4.7l4.3,2.6c3.7,2.3,5.5,4.8,5.5,7.5c0,1.7-0.7,3.1-2,4.2c-1.3,1.1-3,1.7-4.9,1.7c-3.8,0-7.1-1.6-10-4.7
						L201.9,454.7L201.9,454.7z M177.8,459.3c-5.3,0-9.7-1.4-12.9-4.2c-0.9-0.8-1.8-1.8-2.5-3c-0.6-1-1.2-2.3-1.6-4
						c-0.5-1.6-0.7-3.9-0.7-7.2v-23.2h7V441c0,3.6,0.4,6.1,1.2,7.4c0.8,1.4,2,2.4,3.6,3.3c1.6,0.8,3.6,1.3,5.9,1.3
						c3.1,0,5.8-0.8,7.8-2.5c1-0.9,1.8-1.9,2.2-3.1c0.3-0.8,0.6-2.6,0.6-6.4v-23.2h7.1V441c0,3.2-0.2,5.5-0.7,7.1
						c-0.4,1.6-1,2.9-1.7,4c-0.6,1-1.5,2-2.5,2.9C187.3,457.9,183,459.3,177.8,459.3z M161.3,419.1V441c0,3.1,0.2,5.4,0.6,6.9
						c0.4,1.5,0.9,2.7,1.5,3.6c0.7,1.1,1.4,2,2.3,2.6c3,2.6,7,3.9,12,3.9c4.9,0,8.9-1.3,11.9-3.9c1-0.8,1.7-1.7,2.3-2.6
						c0.6-1,1.2-2.2,1.6-3.7c0.4-1.5,0.6-3.7,0.6-6.7v-21.9h-4.4V441c0,3.2-0.3,5.5-0.8,6.8c-0.6,1.4-1.4,2.6-2.6,3.6
						c-2.3,1.8-5.2,2.8-8.7,2.8c-2.5,0-4.6-0.5-6.5-1.4c-1.9-0.9-3.3-2.2-4.2-3.8c-0.9-1.5-1.4-4.2-1.4-8v-21.9L161.3,419.1
						L161.3,419.1z M138.3,459.3c-6.7,0-12.1-2-16.2-5.9c-4.1-4.1-6.1-8.9-6.1-14.7c0-6.1,2.1-11.2,6.3-15.3
						c4.2-4.1,9.5-6.1,15.8-6.1c2.3,0,4.5,0.2,6.5,0.7c2,0.5,4.6,1.4,7.7,2.7l0.4,0.2v7.4l-1-0.6c-4.7-2.7-9.3-4-13.8-4
						c-4.1,0-7.6,1.5-10.5,4.2c-2.8,2.8-4.3,6.3-4.3,10.4c0,4.3,1.4,7.8,4.3,10.6c2.9,2.8,6.5,4.1,11,4.1c2.2,0,4.9-0.5,8-1.5l0.1,0
						v-7.1h-7.7V438h14.6v18l-0.4,0.2C148.1,458.2,143.1,459.3,138.3,459.3z M138,418.6c-6,0-10.9,1.9-14.9,5.7
						c-3.9,3.8-5.9,8.7-5.9,14.3c0,5.5,1.9,10,5.7,13.7c3.8,3.7,9,5.6,15.3,5.6c4.5,0,9.2-1,13.9-3v-15.7h-12v3.7h7.6v9.5l-1,0.3
						c-3.2,1-6,1.6-8.4,1.6c-4.8,0-8.9-1.5-11.9-4.5c-3.1-3-4.7-6.8-4.7-11.5c0-4.4,1.6-8.2,4.7-11.3c3.1-3.1,7-4.6,11.4-4.6
						c4.4,0,8.9,1.2,13.4,3.7v-4.2c-2.9-1.2-5.2-2-7.1-2.5C142.3,418.8,140.2,418.6,138,418.6z M594.5,458.8h-7v-41h7V458.8z
						 M588.8,457.5h4.4v-38.4h-4.4V457.5z M583,458.8h-37.8l25.5-34.8h-23.2v-6.3h36.2l-25.4,34.7H583V458.8z M547.8,457.5h33.8
						v-3.8h-26l25.4-34.7h-32.3v3.7h24.5L547.8,457.5z M545,458.8h-43.8l-0.2-0.4l-5.1-11.4h-16l-5,11.8h-7.3l0.4-0.9l17.2-40.3h4.8
						l0.2,0.4l17.7,39.8l24.7-33.7h-23.2v-6.3h36.2l-25.4,34.7H545L545,458.8L545,458.8z M509.8,457.5h33.9v-3.8h-26l25.4-34.7
						h-32.2v3.7h24.5L509.8,457.5z M502,457.5h4.4l-17.2-38.6h-3.1l-16.5,38.6h4.4l5-11.8h17.7l0.2,0.4L502,457.5z M318,458.8h-5.8
						l-0.2-0.2l-25.4-29.2v29.4H280v-41h5.6l25.8,29.7v-29.7h6.7V458.8z M312.8,457.5h3.9v-38.4h-4.1V451l-27.8-31.9h-3.6v38.4h4
						v-31.7L312.8,457.5z M272,458.8h-7v-41h7V458.8z M266.2,457.5h4.4v-38.4h-4.4V457.5z M246.6,458.8h-7v-34.8H226v-6.3h34.5v6.3
						h-13.8L246.6,458.8L246.6,458.8z M240.9,457.5h4.4v-34.7h13.8v-3.7h-31.8v3.7H241L240.9,457.5L240.9,457.5z M116.6,458.8h-7.3
						l-5.3-11.8h-16l-5,11.8h-7.3l0.4-0.9l17.2-40.3h4.9l0.1,0.4L116.6,458.8z M110.2,457.5h4.4l-17.2-38.6h-3.1l-16.5,38.6h4.4
						l5-11.8H105L110.2,457.5z M444.8,458.8h-13.2v-41h14c5.4,0,9.9,0.8,13.1,2.5c3.3,1.7,5.9,4.2,7.8,7.4c1.9,3.2,2.9,6.8,2.9,10.6
						c0,2.8-0.5,5.3-1.6,7.9c-1.1,2.5-2.6,4.8-4.5,6.6c-2,2-4.3,3.4-7,4.5c-1.3,0.5-2.7,1-4.2,1.2
						C450.9,458.7,448.6,458.8,444.8,458.8z M432.9,457.4h11.9c3.7,0,5.9,0,7.1-0.2c1.4-0.3,2.7-0.6,4-1.2c2.5-0.9,4.7-2.3,6.5-4.1
						c1.8-1.7,3.2-3.8,4.2-6.2c1-2.4,1.5-4.8,1.5-7.4c0-3.6-0.9-6.9-2.7-10c-1.8-3-4.2-5.3-7.3-6.9c-3-1.5-7.2-2.3-12.5-2.3H433
						L432.9,457.4L432.9,457.4z M403.5,454c-4.6,0-8.4-1.5-11.5-4.5c-3.1-2.9-4.6-6.7-4.6-11.1c0-4.6,1.5-8.4,4.5-11.3
						c3-3,7-4.5,11.7-4.5c4.5,0,8.3,1.5,11.4,4.5c3.1,3,4.7,6.7,4.7,11.1c0,4.5-1.6,8.3-4.7,11.3C412,452.5,408.1,454,403.5,454z
						 M403.7,424c-4.4,0-8,1.4-10.8,4.1c-2.8,2.8-4.2,6.2-4.2,10.5c0,4.1,1.4,7.5,4.2,10.2c2.8,2.7,6.4,4.1,10.6,4.1
						c4.3,0,7.8-1.4,10.6-4.2c2.8-2.8,4.3-6.2,4.3-10.3c0-4-1.4-7.4-4.3-10.2C411.3,425.3,407.8,424,403.7,424z M445.2,453.7h-7.9
						v-30.8h7.8c2.9,0,4.8,0.1,6,0.3c1.4,0.3,2.8,0.7,4.1,1.4c1.4,0.6,2.7,1.5,3.8,2.6c3,2.8,4.5,6.5,4.5,10.9
						c0,4.5-1.5,8.3-4.4,11.2c-0.9,0.9-1.9,1.7-3,2.3c-1.2,0.7-2.5,1.2-4.1,1.5C450.5,453.5,448.4,453.7,445.2,453.7z M438.6,452.4
						h6.6c3,0,5.1-0.2,6.5-0.5c1.5-0.3,2.7-0.8,3.8-1.4c1-0.6,1.9-1.3,2.7-2.1c2.7-2.7,4-6.2,4-10.3c0-4.1-1.3-7.3-4.1-10
						c-1.1-1-2.2-1.8-3.5-2.3c-1.2-0.6-2.5-1-3.8-1.2c-1.2-0.2-3.1-0.3-5.8-0.3h-6.4L438.6,452.4L438.6,452.4z M495,442h-14.3
						l6.9-16.8L495,442z M482.7,440.7H493l-5.3-12.1L482.7,440.7z M103.2,442H88.9l6.9-16.8L103.2,442z M90.8,440.7h10.3l-5.4-12.1
						L90.8,440.7z M270.2,416.2h-4.6l4.4-9.8h7.6L270.2,416.2z M267.7,414.9h1.8l5.5-7.2h-4L267.7,414.9z M654.5,391.8
						c-6.2,0-11.3-2-15.4-6c-4.1-4-6.2-9-6.2-14.9c0-6.1,2.1-11.2,6.2-15.2c4.2-4,9.4-6,15.7-6c6.3,0,11.6,2,15.8,6
						c4.2,4,6.3,9.1,6.3,15.1c0,6-2.1,11.1-6.4,15C666.3,389.8,660.9,391.8,654.5,391.8z M654.8,351.1c-5.9,0-10.9,1.9-14.8,5.6
						c-3.9,3.8-5.8,8.6-5.8,14.3c0,5.6,2,10.3,5.8,14c3.8,3.7,8.7,5.5,14.5,5.5c6,0,11.2-1.9,15.1-5.6c4-3.7,6-8.3,6-14.1
						c0-5.6-2-10.4-5.9-14.1C665.8,353,660.7,351.1,654.8,351.1z M613.5,391.8c-4.5,0-8.4-0.9-11.6-2.8c-3.2-1.8-5.7-4.4-7.5-7.5
						c-1.9-3.2-2.8-6.7-2.8-10.5c0-6,2.1-11,6.4-15.1s9.5-6.1,15.7-6.1c4.2,0,9,1.1,14.1,3.3l0.5,0.2v7.7l-1-0.6
						c-4.5-2.6-8.9-3.9-13.3-3.9c-4.4,0-8,1.3-10.9,4.1c-2.9,2.8-4.3,6.2-4.3,10.3c0,4.1,1.4,7.6,4.2,10.3c2.8,2.6,6.5,4,10.9,4
						c4.6,0,9.3-1.5,13.7-4.3l1-0.7v7.8l-0.3,0.2C624,390.6,619.1,391.8,613.5,391.8z M613.6,351.1c-5.8,0-10.8,1.9-14.8,5.8
						c-4,3.8-6,8.5-6,14.1c0,3.5,0.9,6.8,2.6,9.8c1.7,3,4.1,5.4,7.1,7.1c3,1.8,6.6,2.6,11,2.6c5.2,0,9.8-1,13.8-3.1v-4.7
						c-4.4,2.6-8.9,3.9-13.4,3.9c-4.8,0-8.7-1.5-11.8-4.4c-3.1-2.9-4.7-6.7-4.7-11.2c0-4.5,1.6-8.3,4.7-11.3c3.1-3,7.1-4.5,11.8-4.5
						c4.2,0,8.6,1.2,13,3.5v-4.6C622,352.1,617.5,351.1,613.6,351.1z M453.3,391.8c-6.8,0-12.2-2-16.2-6c-4-4-6.1-8.9-6.1-14.7
						c0-6.1,2.2-11.2,6.4-15.3c4.2-4,9.5-6.1,15.8-6.1c2.3,0,4.5,0.3,6.5,0.8c2.1,0.5,4.7,1.4,7.7,2.7l0.4,0.2v7.4l-1-0.6
						c-4.6-2.6-9.2-4-13.8-4c-4.1,0-7.7,1.4-10.5,4.2c-2.8,2.8-4.3,6.3-4.3,10.4c0,4.4,1.4,7.8,4.3,10.6c2.8,2.7,6.5,4.1,11,4.1
						c2.2,0,4.8-0.5,8-1.5l0.1,0v-7.1h-7.7v-6.4h14.6v17.9l-0.4,0.2C463.2,390.7,458.2,391.8,453.3,391.8z M453.1,351.1
						c-5.9,0-10.9,1.9-14.8,5.7c-3.9,3.8-5.9,8.6-5.9,14.3c0,5.4,1.9,10,5.7,13.7c3.8,3.7,8.9,5.5,15.3,5.5c4.6,0,9.2-1,13.9-2.9
						v-15.8h-12v3.8h7.6v9.4l-1,0.3c-3.2,1.1-6,1.6-8.4,1.6c-4.8,0-8.8-1.5-11.9-4.4c-3.1-3-4.7-6.9-4.7-11.6
						c0-4.4,1.6-8.3,4.7-11.3c3.1-3.1,6.9-4.6,11.4-4.6c4.5,0,9,1.2,13.5,3.7v-4.2c-2.8-1.2-5.2-2-7.1-2.4
						C457.4,351.4,455.3,351.1,453.1,351.1z M404,391.8c-6.2,0-11.3-2-15.4-6c-4.1-3.9-6.2-8.9-6.2-14.9c0-6.1,2.1-11.2,6.2-15.2
						c4.1-4,9.4-6,15.7-6c6.3,0,11.6,2,15.8,6c4.2,4,6.3,9.1,6.3,15.1c0,6-2.1,11.1-6.4,15C415.8,389.8,410.4,391.8,404,391.8z
						 M404.3,351.1c-6,0-10.9,1.8-14.8,5.6c-3.9,3.8-5.8,8.4-5.8,14.3c0,5.6,2,10.3,5.8,13.9c3.8,3.7,8.8,5.6,14.5,5.6
						c6.1,0,11.2-1.9,15.1-5.6c4-3.7,6-8.3,6-14.1c0-5.6-2-10.4-5.9-14.1C415.2,353,410.3,351.1,404.3,351.1z M332.2,391.8
						c-6.7,0-12.2-2-16.2-6c-4-4-6.1-8.9-6.1-14.7c0-6.1,2.1-11.2,6.3-15.3c4.2-4.1,9.5-6.1,15.8-6.1c2.3,0,4.5,0.3,6.5,0.8
						c2.1,0.5,4.7,1.4,7.7,2.7l0.4,0.2v7.4l-1-0.6c-4.7-2.6-9.2-4-13.8-4c-4.2,0-7.6,1.4-10.5,4.2c-2.9,2.9-4.3,6.2-4.3,10.4
						c0,4.4,1.4,7.8,4.2,10.6c2.8,2.7,6.5,4.1,11,4.1c2.2,0,4.9-0.5,8-1.5l0.1,0v-7.1h-7.6v-6.4h14.7v17.9l-0.4,0.2
						C342,390.7,337.1,391.8,332.2,391.8z M331.9,351.1c-5.9,0-10.9,1.9-14.8,5.7c-3.9,3.8-5.9,8.6-5.9,14.3c0,5.4,1.9,10,5.7,13.7
						c3.8,3.7,8.9,5.5,15.3,5.5c4.6,0,9.3-1,13.9-2.9v-15.8h-12v3.8h7.7v9.4l-1,0.3c-3.3,1.1-6,1.6-8.4,1.6c-4.8,0-8.8-1.5-11.9-4.4
						c-3.1-3-4.7-6.9-4.7-11.6c0-4.5,1.6-8.3,4.7-11.3c3-3.1,6.9-4.6,11.4-4.6c4.5,0,9,1.2,13.4,3.7v-4.2c-2.8-1.2-5.1-2-7.1-2.4
						C336.2,351.4,334.1,351.1,331.9,351.1z M266.7,391.8c-6.2,0-11.3-2-15.4-6c-4.1-4-6.2-9-6.2-14.9c0-6.1,2.1-11.2,6.2-15.2
						c4.1-4,9.4-6,15.7-6c6.3,0,11.6,2,15.8,6c4.2,4,6.3,9.1,6.3,15.1c0,6-2.2,11.1-6.4,15C278.5,389.8,273.1,391.8,266.7,391.8z
						 M267,351.1c-6,0-10.9,1.8-14.8,5.6c-3.9,3.8-5.8,8.4-5.8,14.3c0,5.5,1.9,10.3,5.8,14c3.8,3.7,8.7,5.5,14.5,5.5
						c6,0,11.2-1.9,15.1-5.6c4-3.7,6-8.5,6-14.1s-2-10.4-6-14.1C278,353,273,351.1,267,351.1z M190.6,391.8c-5.3,0-9.6-1.4-12.9-4.2
						c-1-0.9-1.9-1.8-2.5-3c-0.7-1.1-1.3-2.4-1.7-3.9c-0.4-1.6-0.6-3.9-0.6-7.2v-23.2h7v23.2c0,3.6,0.4,6.1,1.2,7.5
						c0.8,1.3,2,2.4,3.6,3.2c1.6,0.8,3.6,1.2,5.9,1.2c3.3,0,5.9-0.8,7.9-2.5c1-0.9,1.7-1.9,2.2-3.1c0.3-0.9,0.7-2.6,0.7-6.4v-23.2
						h7.1v23.2c0,3.1-0.2,5.5-0.7,7.1c-0.4,1.5-1,2.9-1.7,4c-0.7,1.1-1.6,2.1-2.5,2.9C200,390.4,195.7,391.8,190.6,391.8z
						 M174.1,351.7v21.8c0,3.1,0.2,5.4,0.6,6.9c0.4,1.4,1,2.6,1.6,3.6c0.6,1,1.4,1.9,2.3,2.7c3,2.6,7,3.9,12,3.9
						c4.9,0,8.9-1.3,11.9-3.9c0.9-0.8,1.6-1.7,2.3-2.6c0.6-1,1.2-2.3,1.6-3.7c0.4-1.5,0.6-3.8,0.6-6.7v-21.9h-4.4v21.9
						c0,3.2-0.3,5.5-0.8,6.8c-0.5,1.4-1.4,2.6-2.6,3.6c-2.2,1.9-5.1,2.8-8.7,2.8c-2.5,0-4.6-0.5-6.5-1.4c-1.8-0.9-3.2-2.2-4.1-3.7
						c-0.9-1.7-1.4-4.3-1.4-8.1v-21.9L174.1,351.7L174.1,351.7z M70.2,391.8c-4.1,0-7.8-1.3-11.1-3.7l-0.3-0.2v-9.5l1.2,1.5
						c2.9,3.7,6.3,5.6,10.1,5.6c1.6,0,3-0.4,4.1-1.3c1-0.9,1.5-1.9,1.5-3.2c0-2.2-1.7-4.3-5-6.3l-4.3-2.6c-2.8-1.7-4.8-3.3-6-5
						c-1.3-1.8-1.9-3.8-1.9-6c0-3.3,1.2-6,3.5-8.1c2.3-2.1,5.3-3.1,8.9-3.1c3.5,0,6.7,1,9.5,2.9l0.3,0.2v8.3l-1.1-1.1
						c-2.7-2.7-5.6-4-8.8-4c-1.7,0-3.1,0.4-4.2,1.2c-1,0.7-1.5,1.6-1.5,2.7c0,1.1,0.4,2,1.2,3c0.8,1,2.2,2,4,3.1l4.3,2.6
						c5.1,3,7.6,6.9,7.6,11.5c0,3.4-1.1,6.2-3.4,8.2C76.7,390.7,73.7,391.8,70.2,391.8z M60.2,387.2c3,2.2,6.3,3.2,10,3.2
						c3.2,0,5.9-0.9,7.9-2.8c2-1.8,3-4.2,3-7.3c0-4.3-2.3-7.7-7-10.5l-4.3-2.5c-2-1.2-3.5-2.3-4.4-3.4c-1-1.2-1.5-2.4-1.5-3.8
						c0-1.5,0.7-2.9,2.1-3.8c1.3-1,2.9-1.4,5-1.4c3,0,5.9,1.1,8.6,3.3v-4.6c-2.5-1.7-5.4-2.5-8.5-2.5c-3.3,0-6,0.9-8,2.8
						c-2,1.8-3,4.2-3,7.1c0,2,0.5,3.6,1.6,5.2c1.1,1.5,3,3.1,5.6,4.7l4.3,2.6c3.7,2.3,5.6,4.8,5.6,7.5c0,1.7-0.7,3.1-2,4.2
						c-1.3,1.1-2.9,1.7-4.9,1.7c-3.7,0-7.1-1.6-10-4.7L60.2,387.2L60.2,387.2z M585.3,391.3h-7v-41h7V391.3z M579.6,390h4.4v-38.4
						h-4.4V390z M557.6,391.3h-7v-41h22.5v6.4h-15.5v9.7h15.5v6.4h-15.5L557.6,391.3L557.6,391.3z M551.9,390h4.4v-18.5h15.5v-3.8
						h-15.5v-12.4h15.5v-3.7h-19.9V390z M547.5,391.3h-7.2l-5.3-11.8h-16l-5,11.8h-13.7l-1.9-2.9v0c0,0,0-0.1-0.1-0.2
						c-0.1-0.1-0.2-0.2-0.2-0.2l-1.2-1.6l-3.7-6c-1.1-1.5-2.1-2.8-3.1-3.8c-0.9-0.9-1.7-1.5-2.5-2c-0.5-0.3-1.5-0.6-3.7-0.6H483
						v17.3h-7v-41h10.6c4.1,0,7.5,1.1,10,3.2c2.5,2.1,3.8,5,3.8,8.6c0,2.4-0.6,4.6-1.9,6.4c-1,1.5-2.4,2.7-4.2,3.5
						c1,0.8,2,1.8,2.9,2.8c1.3,1.5,3,4,5.2,7.6c1.4,2.3,2.5,4,3.3,5l1.6,2.2l16.9-39.5h4.9l0.2,0.4L547.5,391.3z M541,390h4.4
						l-17.2-38.6h-3.2L508.6,390h4.4l5-11.8h17.8L541,390z M500.9,390h5.1l-1.3-1.8c-0.8-1.1-1.9-2.8-3.3-5.1c-2.2-3.6-3.9-6-5-7.5
						c-1.2-1.3-2.3-2.5-3.6-3.3l-1.1-0.7l1.2-0.5c2.1-0.8,3.6-2,4.7-3.5c1.1-1.6,1.6-3.5,1.6-5.6c0-3.2-1.1-5.7-3.3-7.6
						c-2.2-1.9-5.3-2.8-9.1-2.8h-9.3V390h4.3v-17.3h2.1c2,0,3.4,0.2,4.3,0.8c0.9,0.4,1.8,1.2,2.8,2.2c1,1,2.1,2.3,3.3,3.9l3.7,6.1
						l1.1,1.5c0.1,0.1,0.2,0.2,0.2,0.3l0.1,0.2L500.9,390z M232.4,391.3h-7v-34.7h-13.6v-6.4h34.5v6.4h-13.8L232.4,391.3
						L232.4,391.3z M226.7,390h4.4v-34.7h13.9v-3.7h-31.8v3.7h13.6L226.7,390L226.7,390z M155.3,391.3h-7v-34.7h-13.6v-6.4h34.5v6.4
						h-13.9V391.3z M149.6,390h4.4v-34.7h13.8v-3.7H136v3.7h13.6L149.6,390L149.6,390z M130.2,391.3h-7v-41h7V391.3z M124.5,390h4.3
						v-38.4h-4.3V390z M104.9,391.3h-7v-34.7H84.3v-6.4h34.5v6.4h-13.8V391.3z M99.2,390h4.4v-34.7h13.9v-3.7H85.6v3.7h13.6
						L99.2,390L99.2,390z M53.1,391.3h-5.9l-25.6-29.5v29.5H15v-41h5.6L46.4,380v-29.7h6.7L53.1,391.3L53.1,391.3z M47.9,390h4
						v-38.4h-4.1v31.9L20,351.7h-3.6V390h4v-31.7L47.9,390z M7,391.3H0v-41h7V391.3z M1.3,390h4.4v-38.4H1.3V390z M379,391.3h-24.3
						v-41h23.8v6.4h-16.8v10.8H378v6.4h-16.2v11H379V391.3z M356,390h21.7v-3.7h-17.3v-13.7h16.3v-3.8h-16.3v-13.4h16.8v-3.7H356
						V390z M654.9,386.6c-4.6,0-8.5-1.5-11.5-4.4c-3.1-3-4.6-6.8-4.6-11.2c0-4.5,1.5-8.4,4.6-11.3c3-3,7-4.5,11.7-4.5
						c4.5,0,8.3,1.5,11.4,4.5c3.1,3,4.7,6.7,4.7,11.1c0,4.5-1.6,8.3-4.7,11.3C663.3,385,659.5,386.6,654.9,386.6z M655,356.5
						c-4.3,0-7.9,1.4-10.8,4.1c-2.8,2.8-4.2,6.2-4.2,10.4c0,4.1,1.4,7.5,4.2,10.2c2.9,2.7,6.3,4,10.6,4c4.2,0,7.8-1.4,10.6-4.2
						c2.8-2.7,4.2-6.2,4.2-10.3c0-4-1.4-7.4-4.2-10.1C662.6,357.8,659.2,356.5,655,356.5z M404.4,386.6c-4.6,0-8.4-1.5-11.5-4.4
						c-3-3-4.6-6.8-4.6-11.2c0-4.5,1.5-8.4,4.6-11.3c3-3,6.9-4.5,11.7-4.5c4.5,0,8.3,1.5,11.4,4.5c3.1,3,4.6,6.8,4.6,11.1
						c0,4.5-1.6,8.3-4.6,11.3C412.9,385,409,386.6,404.4,386.6z M404.5,356.5c-4.3,0-8,1.4-10.7,4.1c-2.8,2.7-4.2,6.2-4.2,10.4
						c0,4.1,1.4,7.5,4.2,10.2c2.8,2.7,6.4,4,10.6,4c4.2,0,7.8-1.4,10.6-4.2c2.8-2.7,4.2-6.2,4.2-10.3c0-4-1.4-7.4-4.2-10.1
						C412.1,357.8,408.7,356.5,404.5,356.5z M267,386.6c-4.5,0-8.4-1.5-11.5-4.4c-3.1-3-4.6-6.8-4.6-11.2c0-4.5,1.5-8.4,4.6-11.3
						c3-3,6.9-4.5,11.7-4.5c4.5,0,8.3,1.5,11.4,4.5c3.1,3,4.6,6.7,4.6,11.1c0,4.5-1.5,8.3-4.6,11.3C275.6,385,271.7,386.6,267,386.6
						z M267.2,356.5c-4.4,0-8,1.4-10.7,4.1c-2.8,2.7-4.2,6.2-4.2,10.4c0,4.1,1.4,7.5,4.2,10.2c2.8,2.7,6.3,4,10.5,4
						c4.3,0,7.8-1.4,10.6-4.2c2.8-2.7,4.3-6.2,4.3-10.3c0-4-1.5-7.4-4.3-10.1C274.9,357.8,271.4,356.5,267.2,356.5z M534,374.5
						h-14.3l6.9-16.8L534,374.5z M521.6,373.2H532l-5.3-12.1L521.6,373.2z M484.5,369h-2.8v-13.8h2.4c2.9,0,5,0.2,6.2,0.7
						c1.3,0.4,2.3,1.2,3.1,2.4c0.7,1.1,1.1,2.4,1.1,3.8c0,1.4-0.3,2.7-1,3.7c-0.7,1.1-1.6,1.9-2.8,2.5
						C489.6,368.8,487.6,369,484.5,369z M483,367.7h1.5c2.8,0,4.7-0.2,5.6-0.7c1-0.5,1.7-1.1,2.2-2c0.5-0.8,0.8-1.9,0.8-3
						s-0.3-2.2-0.9-3c-0.6-0.9-1.4-1.5-2.4-1.9c-1.1-0.4-3-0.6-5.8-0.6h-1L483,367.7L483,367.7z M527.3,348.7h-4.5l4.4-9.9h7.5
						L527.3,348.7z M524.9,347.4h1.9l5.4-7.2h-4L524.9,347.4z"/>
				</g>
				<g>
					<path class="st0" d="M216.2,436.9l-4.3-2.5c-2-1.1-3.4-2.2-4.2-3.3c-0.9-1.1-1.3-2.2-1.3-3.4c0-1.3,0.6-2.5,1.8-3.3
						c1.2-0.8,2.7-1.3,4.6-1.3c3.3,0,6.4,1.4,9.2,4.2v-6.5c-2.8-1.8-5.8-2.8-9.1-2.8c-3.5,0-6.3,1-8.4,2.9c-2.2,1.9-3.3,4.5-3.3,7.6
						c0,2.1,0.5,3.9,1.7,5.5c1.2,1.6,3.1,3.2,5.8,4.9l4.3,2.6c3.5,2.2,5.3,4.5,5.3,6.9c0,1.5-0.6,2.7-1.8,3.7
						c-1.2,1-2.7,1.5-4.4,1.5c-4.1,0-7.6-1.9-10.7-5.8v7.2c3.2,2.4,6.8,3.6,10.7,3.6c3.4,0,6.2-1,8.3-3c2.1-2,3.2-4.6,3.2-7.8
						C223.4,443.4,221,439.7,216.2,436.9z"/>
					<path class="st0" d="M81.7,380.4c0-4.5-2.4-8.1-7.3-11l-4.3-2.5c-2-1.2-3.4-2.2-4.2-3.3c-0.9-1.1-1.3-2.1-1.3-3.4
						c0-1.3,0.6-2.4,1.8-3.2c1.2-0.9,2.7-1.3,4.6-1.3c3.3,0,6.4,1.4,9.3,4.1v-6.4c-2.8-1.9-5.8-2.8-9.2-2.8c-3.4,0-6.3,1-8.4,3
						c-2.2,2-3.3,4.5-3.3,7.6c0,2.1,0.6,3.9,1.7,5.6c1.1,1.6,3.1,3.2,5.8,4.9l4.3,2.6c3.5,2.2,5.2,4.5,5.2,6.9
						c0,1.5-0.6,2.7-1.8,3.7c-1.2,1-2.7,1.5-4.5,1.5c-4,0-7.6-1.9-10.6-5.8v7.2c3.2,2.4,6.8,3.6,10.7,3.6c3.4,0,6.2-1,8.3-3
						C80.7,386.2,81.7,383.6,81.7,380.4z"/>
					<path class="st0" d="M139.5,443.7h7.7v8.3l-0.6,0.2c-3.2,1.1-5.9,1.5-8.2,1.5c-4.7,0-8.5-1.4-11.5-4.3c-3-2.8-4.5-6.5-4.5-11
						c0-4.3,1.5-7.9,4.5-10.9c3-2.9,6.6-4.5,11-4.5c4.7,0,9.4,1.4,14.1,4.1v-5.8c-3.1-1.3-5.6-2.2-7.7-2.7c-2-0.5-4.1-0.7-6.3-0.7
						c-6.1,0-11.3,2-15.3,5.9c-4.1,4-6.1,8.9-6.1,14.8c0,5.7,2,10.4,5.9,14.2c4,3.8,9.2,5.8,15.8,5.8c4.8,0,9.7-1.1,14.5-3.2v-16.8
						h-13.3L139.5,443.7L139.5,443.7z"/>
					<path class="st0" d="M93.9,418.3l-17.1,39.9h5.9l5-11.8h16.9l5.3,11.8h5.8l-17.8-39.9H93.9z M89.9,441.3l5.9-14.4l6.4,14.4
						H89.9z"/>
					<path class="st0" d="M189.1,441c0,3.1-0.3,5.3-0.7,6.6c-0.5,1.3-1.3,2.4-2.4,3.3c-2.1,1.8-4.9,2.7-8.2,2.7
						c-2.4,0-4.4-0.4-6.2-1.3c-1.8-0.9-3.1-2-3.9-3.5c-0.9-1.4-1.3-4-1.3-7.8v-22.6h-5.7v22.5c0,3.2,0.2,5.5,0.6,7
						c0.5,1.5,1,2.8,1.6,3.8c0.6,1,1.5,2,2.4,2.8c3.1,2.7,7.3,4.1,12.5,4.1c5.1,0,9.2-1.3,12.3-4.1c1-0.8,1.8-1.7,2.4-2.7
						c0.7-1.1,1.2-2.4,1.7-3.9c0.4-1.5,0.6-3.8,0.6-6.9v-22.6h-5.7L189.1,441L189.1,441z"/>
					<polygon class="st0" points="168.5,350.9 135.4,350.9 135.4,356 149,356 149,390.7 154.7,390.7 154.7,356 168.5,356 					"/>
					<path class="st0" d="M266.7,391.1c6.3,0,11.5-1.9,15.6-5.7c4.1-3.8,6.2-8.7,6.2-14.6c0-5.8-2.1-10.7-6.1-14.6
						c-4.1-3.9-9.2-5.8-15.3-5.8c-6.2,0-11.2,1.9-15.3,5.8c-4,3.9-6,8.8-6,14.7c0,5.8,2,10.6,6,14.4
						C255.7,389.2,260.7,391.1,266.7,391.1z M256,360.1c2.9-2.8,6.6-4.3,11.2-4.3c4.3,0,8,1.5,10.9,4.3c3,2.9,4.4,6.4,4.4,10.6
						c0,4.3-1.5,8-4.4,10.9c-3,2.9-6.7,4.3-11.1,4.3c-4.4,0-8.1-1.4-11-4.2c-2.9-2.9-4.4-6.4-4.4-10.7
						C251.6,366.6,253.1,362.9,256,360.1z"/>
					<polygon class="st0" points="533.4,339.5 527.7,339.5 523.8,348.1 527,348.1 					"/>
					<path class="st0" d="M482.4,373.4h1.5c1.9,0,3.2,0.2,4,0.7c0.8,0.4,1.7,1.1,2.6,2.1c1,1,2,2.3,3.2,3.9l1.9,3.1l1.8,3l1.1,1.5
						c0.2,0.2,0.3,0.4,0.3,0.5l1.8,2.6h6.8l-2.1-2.8c-0.8-1.1-1.9-2.8-3.3-5.1c-2.2-3.6-3.9-6.1-5.1-7.5c-1.2-1.5-2.4-2.5-3.7-3.4
						c2.1-0.8,3.8-2.1,5-3.8c1.2-1.7,1.8-3.7,1.8-6c0-3.4-1.2-6.1-3.6-8.1c-2.3-2-5.6-3-9.5-3h-10v39.7h5.7L482.4,373.4L482.4,373.4
						z M482.4,355.8h1.7c2.8,0,4.7,0.2,6,0.7c1.2,0.4,2.2,1.1,2.8,2.1c0.7,1,1,2.2,1,3.4c0,1.3-0.3,2.4-0.9,3.4
						c-0.6,1-1.5,1.7-2.5,2.2c-1,0.5-3.1,0.8-5.9,0.8h-2.1L482.4,355.8L482.4,355.8z"/>
					<polygon class="st0" points="231.7,390.7 231.7,356 245.6,356 245.6,350.9 212.4,350.9 212.4,356 226,356 226,390.7 					"/>
					<polygon class="st0" points="556.9,372.1 572.5,372.1 572.5,367.1 556.9,367.1 556.9,356 572.5,356 572.5,351 551.3,351 
						551.3,390.7 556.9,390.7 					"/>
					<polygon class="st0" points="47.1,381.8 20.2,351 15.7,351 15.7,390.7 21,390.7 21,360.1 47.6,390.7 52.4,390.7 52.4,351 
						47.1,351 					"/>
					<rect x="0.7" y="351" class="st0" width="5.7" height="39.7"/>
					<path class="st0" d="M175.7,384.3c0.6,1,1.4,2,2.4,2.8c3.1,2.7,7.3,4,12.5,4c5,0,9.1-1.3,12.3-4c1-0.8,1.8-1.7,2.4-2.8
						c0.7-1,1.2-2.3,1.7-3.9c0.4-1.6,0.7-3.9,0.7-6.9V351h-5.7v22.5c0,3.1-0.3,5.3-0.7,6.6c-0.5,1.3-1.3,2.4-2.4,3.4
						c-2.1,1.8-4.9,2.6-8.2,2.6c-2.4,0-4.4-0.4-6.2-1.3c-1.7-0.9-3-2.1-3.9-3.5c-0.9-1.5-1.3-4.1-1.3-7.8V351h-5.8v22.5
						c0,3.2,0.2,5.5,0.6,7C174.5,382,175,383.3,175.7,384.3z"/>
					<polygon class="st0" points="98.6,390.7 104.3,390.7 104.3,356 118.1,356 118.1,350.9 85,350.9 85,356 98.6,356 					"/>
					<rect x="123.9" y="351" class="st0" width="5.7" height="39.7"/>
					<path class="st0" d="M518.5,378.9h16.9l5.3,11.8h5.8l-17.8-39.9h-4l-17,39.9h5.8L518.5,378.9z M526.6,359.5l6.4,14.4h-12.3
						L526.6,359.5z"/>
					<polygon class="st0" points="548.1,418.4 548.1,423.5 571.9,423.5 546.5,458.2 582.3,458.2 582.3,453.2 556.9,453.2 
						582.3,418.4 					"/>
					<polygon class="st0" points="510.1,418.4 510.1,423.5 534,423.5 508.5,458.2 544.4,458.2 544.4,453.2 519,453.2 544.4,418.4 
											"/>
					<path class="st0" d="M485.7,418.3l-17.1,39.9h5.8l5-11.8h16.9l5.3,11.8h5.8l-17.8-39.9H485.7z M481.7,441.3l5.9-14.4l6.4,14.4
						H481.7z"/>
					<path class="st0" d="M466,428.1c-1.9-3.2-4.3-5.6-7.5-7.2c-3.2-1.6-7.4-2.4-12.8-2.4h-13.4v39.6h12.5c3.5,0,5.9,0,7.2-0.2
						c1.2-0.2,2.6-0.6,4.1-1.2c2.5-1,4.8-2.4,6.7-4.3c1.9-1.8,3.4-3.9,4.4-6.4s1.5-5,1.5-7.6C468.7,434.6,467.8,431.2,466,428.1z
						 M458.7,448.8c-0.9,0.9-1.8,1.6-2.9,2.2c-1,0.6-2.3,1.1-3.9,1.4c-1.6,0.4-3.8,0.6-6.7,0.6h-7.2v-29.5h7.1c2.8,0,4.7,0.1,6,0.3
						c1.2,0.2,2.5,0.6,3.9,1.3c1.4,0.6,2.6,1.5,3.6,2.5c2.8,2.7,4.3,6.1,4.3,10.4C462.9,442.4,461.5,446,458.7,448.8z"/>
					<rect x="578.9" y="351" class="st0" width="5.7" height="39.7"/>
					<path class="st0" d="M602.5,381.7c-2.9-2.8-4.4-6.4-4.4-10.7c0-4.3,1.5-7.9,4.5-10.8c3-2.9,6.8-4.3,11.3-4.3
						c4.4,0,9,1.3,13.6,4v-6.2c-5.1-2.1-9.7-3.3-13.9-3.3c-6,0-11.1,2-15.3,5.9c-4.1,3.9-6.2,8.8-6.2,14.6c0,3.7,0.9,7,2.7,10.2
						c1.8,3.1,4.2,5.5,7.3,7.3c3.1,1.8,6.8,2.7,11.3,2.7c5.5,0,10.3-1.1,14.5-3.4v-6.2c-4.6,3-9.3,4.4-14.1,4.4
						C609.2,385.9,605.5,384.5,602.5,381.7z"/>
					<path class="st0" d="M670.1,356.2c-4.1-3.9-9.2-5.8-15.3-5.8c-6.1,0-11.2,1.9-15.2,5.8c-4,3.9-6,8.8-6,14.7
						c0,5.8,2,10.6,6,14.4c4,3.8,9,5.7,15,5.7c6.2,0,11.5-1.9,15.6-5.7c4.1-3.8,6.2-8.7,6.2-14.6C676.3,365,674.2,360.1,670.1,356.2
						z M666,381.6c-3,2.9-6.7,4.3-11.1,4.3c-4.5,0-8.1-1.4-11.1-4.2c-2.9-2.9-4.4-6.4-4.4-10.7c0-4.4,1.5-8,4.4-10.9
						c2.9-2.8,6.7-4.3,11.2-4.3c4.3,0,8,1.5,10.9,4.3c3,2.9,4.4,6.4,4.4,10.6C670.4,375,668.9,378.7,666,381.6z"/>
					<rect x="588.1" y="418.5" class="st0" width="5.7" height="39.8"/>
					<path class="st0" d="M403.5,417.9c-6.1,0-11.2,1.9-15.3,5.8c-4,3.9-6,8.8-6,14.7c0,5.8,2,10.6,6,14.4c4,3.8,9,5.8,15,5.8
						c6.3,0,11.5-1.9,15.6-5.8c4.1-3.8,6.2-8.7,6.2-14.6s-2-10.7-6.1-14.6C414.7,419.8,409.6,417.9,403.5,417.9z M414.6,449
						c-3,2.9-6.7,4.4-11.1,4.4c-4.4,0-8.1-1.4-11-4.3c-3-2.8-4.4-6.4-4.4-10.7c0-4.4,1.5-8,4.4-10.9c3-2.9,6.7-4.3,11.2-4.3
						c4.3,0,8,1.5,11,4.3c3,2.9,4.4,6.4,4.4,10.6C419.1,442.5,417.6,446.2,414.6,449z"/>
					<polygon class="st0" points="312,449.3 285.2,418.5 280.6,418.5 280.6,458.2 285.9,458.2 285.9,427.6 312.5,458.2 317.4,458.2 
						317.4,418.5 312,418.5 					"/>
					<path class="st0" d="M346.7,371.1h-13.3v5.1h7.7v8.3l-0.5,0.2c-3.2,1-5.9,1.6-8.2,1.6c-4.7,0-8.5-1.4-11.5-4.3
						c-3-2.9-4.4-6.5-4.4-11.1c0-4.3,1.5-7.9,4.4-10.9c3-3,6.6-4.4,11-4.4c4.7,0,9.4,1.4,14.1,4.1v-5.8c-3.1-1.3-5.6-2.2-7.6-2.6
						c-2-0.5-4.1-0.8-6.4-0.8c-6.1,0-11.3,2-15.3,5.9c-4,3.9-6.1,8.9-6.1,14.8c0,5.6,2,10.4,5.9,14.2c3.9,3.8,9.2,5.7,15.7,5.7
						c4.8,0,9.7-1,14.6-3.2L346.7,371.1L346.7,371.1z"/>
					<polygon class="st0" points="266.7,415.5 269.9,415.5 276.3,407 270.5,407 					"/>
					<rect x="265.6" y="418.5" class="st0" width="5.7" height="39.8"/>
					<path class="st0" d="M404.3,350.4c-6.2,0-11.3,1.9-15.3,5.8c-4,3.9-6,8.8-6,14.7c0,5.8,2,10.6,6,14.4s9,5.7,15,5.7
						c6.2,0,11.4-1.9,15.6-5.7c4.1-3.8,6.2-8.7,6.2-14.6c0-5.8-2-10.7-6.2-14.6C415.5,352.3,410.5,350.4,404.3,350.4z M415.5,381.6
						c-3,2.9-6.6,4.3-11.1,4.3c-4.4,0-8.1-1.4-11.1-4.2c-2.9-2.9-4.4-6.4-4.4-10.7c0-4.4,1.5-8,4.4-10.9c2.9-2.8,6.7-4.3,11.2-4.3
						c4.3,0,7.9,1.5,10.9,4.3c3,2.9,4.5,6.4,4.5,10.6C419.9,375,418.4,378.7,415.5,381.6z"/>
					<path class="st0" d="M453.3,391.1c4.8,0,9.6-1,14.5-3.2v-16.8h-13.3v5.1h7.6v8.3l-0.5,0.2c-3.2,1-5.9,1.6-8.2,1.6
						c-4.7,0-8.5-1.4-11.5-4.3c-3-2.9-4.5-6.5-4.5-11.1c0-4.3,1.5-7.9,4.5-10.9c3-3,6.6-4.4,10.9-4.4c4.7,0,9.4,1.4,14.1,4.1v-5.8
						c-3.1-1.3-5.6-2.2-7.6-2.6c-2-0.5-4.1-0.8-6.4-0.8c-6.1,0-11.3,2-15.3,5.9c-4.1,3.9-6.1,8.9-6.1,14.8c0,5.6,2,10.4,5.9,14.2
						C441.5,389.2,446.8,391.1,453.3,391.1z"/>
					<polygon class="st0" points="226.6,423.5 240.3,423.5 240.3,458.2 246,458.2 246,423.5 259.8,423.5 259.8,418.4 226.6,418.4 
											"/>
					<path class="st0" d="M351.2,449.2c-3-2.8-4.5-6.4-4.5-10.7c0-4.3,1.5-7.9,4.5-10.8c3-2.9,6.8-4.3,11.3-4.3c4.4,0,9,1.3,13.6,4
						v-6.2c-5.1-2.1-9.8-3.2-13.9-3.2c-6,0-11.1,2-15.2,5.9c-4.1,4-6.2,8.8-6.2,14.6c0,3.6,0.9,7,2.7,10.1c1.8,3.2,4.2,5.6,7.3,7.4
						c3.1,1.8,6.9,2.7,11.3,2.7c5.5,0,10.3-1.1,14.5-3.4V449c-4.6,2.9-9.3,4.4-14.1,4.4C357.9,453.4,354.2,452,351.2,449.2z"/>
					<polygon class="st0" points="361.1,373.2 377.3,373.2 377.3,368.1 361.1,368.1 361.1,356 377.9,356 377.9,351 355.4,351 
						355.4,390.6 378.4,390.6 378.4,385.6 361.1,385.6 					"/>
				</g>
				<path class="st1" d="M725.2,327.8l195-314.7l0.1,120.5l194,118.4L921,574.3L920,455L725.2,327.8z M716.7,6.8h405.7v574.7H716.7
					V6.8z"/>
				<path class="st2" d="M725.2,327.8l195-314.7l0.1,120.5l194,118.4L921,574.3L920,455L725.2,327.8z M716.7,6.8h405.7v574.7H716.7
					V6.8z"/>
				<polygon class="st3" points="725.2,327.8 920.2,13.1 920.3,133.6 1114.3,251.9 921,574.3 920,455 				"/>
				<polygon class="st4" points="725.2,327.8 920.2,13.1 920.3,133.6 1114.3,251.9 921,574.3 920,455 				"/>
				<path class="st5" d="M718.5,321.1l195-314.7l0.1,120.5l194,118.4L914.2,567.5l-0.9-119.3L718.5,321.1z M709.9,0h405.6v574.7
					H709.9L709.9,0L709.9,0z"/>
				<path class="st1" d="M916,203c50.4,0,91.3,40.9,91.3,91.3c0,50.4-40.9,91.2-91.3,91.2c-50.4,0-91.2-40.9-91.2-91.2
					C824.8,243.8,865.7,203,916,203"/>
				<g>
					<g>
						<path id="SVGID_1_" class="st1" d="M912.7,196.1c50.4,0,91.3,40.9,91.3,91.3s-40.9,91.3-91.3,91.3
							c-50.4,0-91.3-40.9-91.3-91.3S862.3,196.1,912.7,196.1"/>
					</g>
					<g>
						<defs>
							<path id="SVGID_00000143613909983031681560000018196142382051328161_" d="M912.7,196.1c50.4,0,91.3,40.9,91.3,91.3
								s-40.9,91.3-91.3,91.3c-50.4,0-91.3-40.9-91.3-91.3S862.3,196.1,912.7,196.1"/>
						</defs>
						<clipPath id="SVGID_00000083046741532058178040000002762637010429378466_">
							<use xlink:href="#SVGID_00000143613909983031681560000018196142382051328161_"  style="overflow:visible;"/>
						</clipPath>
					</g>
					<g>
						<defs>
							<path id="SVGID_00000174592456477197275280000016482355927333120132_" d="M912.7,196.1c50.4,0,91.3,40.9,91.3,91.3
								s-40.9,91.3-91.3,91.3c-50.4,0-91.3-40.9-91.3-91.3S862.3,196.1,912.7,196.1"/>
						</defs>
						<clipPath id="SVGID_00000028323510761046955150000011039166631822926721_">
							<use xlink:href="#SVGID_00000174592456477197275280000016482355927333120132_"  style="overflow:visible;"/>
						</clipPath>
						
							<linearGradient id="SVGID_00000119085303864648687040000008944261079484093353_" gradientUnits="userSpaceOnUse" x1="817.45" y1="16670.2402" x2="1006.5299" y2="16670.2402" gradientTransform="matrix(1 0 0 1 0 -16382)">
							<stop  offset="0" style="stop-color:#FFFFFF"/>
							<stop  offset="0.2142" style="stop-color:#FCFCFC"/>
							<stop  offset="0.3497" style="stop-color:#F4F4F4"/>
							<stop  offset="0.4633" style="stop-color:#E5E5E5"/>
							<stop  offset="0.5649" style="stop-color:#D0D0D0"/>
							<stop  offset="0.6584" style="stop-color:#B5B5B5"/>
							<stop  offset="0.7461" style="stop-color:#949494"/>
							<stop  offset="0.8292" style="stop-color:#6D6D6D"/>
							<stop  offset="0.9086" style="stop-color:#3F3F3F"/>
							<stop  offset="0.9826" style="stop-color:#0D0D0D"/>
							<stop  offset="1" style="stop-color:#000000"/>
						</linearGradient>
						
							<rect x="817.4" y="193.7" style="clip-path:url(#SVGID_00000028323510761046955150000011039166631822926721_);fill:url(#SVGID_00000119085303864648687040000008944261079484093353_);" width="189.1" height="189.1"/>
					</g>
					<g>
						<defs>
							<path id="SVGID_00000005957429943674723430000008795602639397167755_" d="M912.7,196.1c50.4,0,91.3,40.9,91.3,91.3
								s-40.9,91.3-91.3,91.3c-50.4,0-91.3-40.9-91.3-91.3S862.3,196.1,912.7,196.1"/>
						</defs>
						<clipPath id="SVGID_00000041257052327148127510000010027441464985875850_">
							<use xlink:href="#SVGID_00000005957429943674723430000008795602639397167755_"  style="overflow:visible;"/>
						</clipPath>
						<g style="clip-path:url(#SVGID_00000041257052327148127510000010027441464985875850_);">
							<g>
								<defs>
									<circle id="SVGID_00000086653374343015667320000017253530351135455652_" cx="911.3" cy="288.9" r="96"/>
								</defs>
								<clipPath id="SVGID_00000176758782732361093510000014722486978882427319_">
									<use xlink:href="#SVGID_00000086653374343015667320000017253530351135455652_"  style="overflow:visible;"/>
								</clipPath>
								
									<radialGradient id="SVGID_00000000222444316162330560000002626318632149580177_" cx="884.075" cy="16641.7559" r="123.235" gradientTransform="matrix(1 0 0 1 0 -16382)" gradientUnits="userSpaceOnUse">
									<stop  offset="0" style="stop-color:#FFFFFF"/>
									<stop  offset="0.1439" style="stop-color:#C8E9DC"/>
									<stop  offset="0.3155" style="stop-color:#8DD1B6"/>
									<stop  offset="0.4811" style="stop-color:#5BBD97"/>
									<stop  offset="0.6366" style="stop-color:#35AE7F"/>
									<stop  offset="0.7794" style="stop-color:#1AA36D"/>
									<stop  offset="0.9049" style="stop-color:#099C63"/>
									<stop  offset="1" style="stop-color:#039A5F"/>
								</radialGradient>
								
									<rect x="760.8" y="136.5" style="clip-path:url(#SVGID_00000176758782732361093510000014722486978882427319_);fill:url(#SVGID_00000000222444316162330560000002626318632149580177_);" width="246.5" height="246.5"/>
							</g>
						</g>
					</g>
				</g>
				<polygon class="st1" points="979.3,201.9 884.7,263.1 968.6,316.8 				"/>
				<polygon class="st9" points="974.1,186.9 879.4,250.2 963.3,301.8 				"/>
			</g>
		</g>
	</g>
</g>
</svg>
